<svg width="45" height="45" viewBox="0 0 45 45" fill="none" xmlns="http://www.w3.org/2000/svg">
<path d="M15.8715 29.0067C14.576 29.7546 12.9135 29.3092 12.1656 28.0137C11.4176 26.7181 11.863 25.0557 13.1586 24.3077C14.4542 23.5597 16.1166 24.0052 16.8645 25.3007C17.6125 26.5963 17.1671 28.2587 15.8715 29.0067ZM13.7571 25.3443C13.0331 25.7623 12.7841 26.6913 13.2021 27.4153C13.6201 28.1393 14.5492 28.3882 15.2731 27.9702C15.9971 27.5522 16.246 26.6232 15.828 25.8992C15.4101 25.1752 14.481 24.9263 13.7571 25.3443Z" fill="url(#paint0_linear)"/>
<path d="M31.3503 20.07C30.0548 20.818 28.3923 20.3726 27.6443 19.077C26.8963 17.7815 27.3418 16.119 28.6373 15.3711C29.9328 14.6231 31.5953 15.0685 32.3433 16.3641C33.0913 17.6596 32.6458 19.3221 31.3503 20.07ZM29.2358 16.4077C28.5119 16.8256 28.2629 17.7546 28.6809 18.4786C29.0989 19.2026 30.0279 19.4516 30.7519 19.0336C31.4759 18.6156 31.7248 17.6865 31.3068 16.9626C30.8887 16.2386 29.9598 15.9897 29.2358 16.4077Z" fill="url(#paint1_linear)"/>
<path d="M32.4487 16.5677C32.5324 16.746 32.5942 16.9297 32.6371 17.1158L31.5073 17.7682C31.5163 17.4949 31.4531 17.2162 31.3067 16.9626C30.9795 16.396 30.3396 16.1205 29.7297 16.2276C29.5598 16.2574 29.3933 16.3167 29.2357 16.4077C29.0098 16.5382 28.8307 16.718 28.7031 16.9262L27.6181 16.4129C27.8137 16.0559 28.0918 15.7396 28.4442 15.4947L32.4487 16.5677Z" fill="url(#paint2_linear)"/>
<path d="M15.828 25.8991C15.9745 26.1529 16.0375 26.4316 16.0284 26.7048L17.1597 26.0517C17.1009 25.7942 17.0033 25.5411 16.8645 25.3007C16.373 24.4494 15.4874 23.9656 14.57 23.9452L14.4724 25.1422C15.0102 25.1275 15.5404 25.4009 15.828 25.8991Z" fill="url(#paint3_linear)"/>
<path d="M42.2891 29.7861L18.8167 43.3379C17.4748 44.1126 15.759 43.6528 14.9843 42.3111L9.45159 32.7281C8.67685 31.3862 9.13665 29.6704 10.4785 28.8957L33.9509 15.3439C35.2928 14.5692 37.0085 15.029 37.7832 16.3708L43.3159 25.9538C44.0906 27.2956 43.6309 29.0114 42.2891 29.7861Z" fill="#FFBB00"/>
<path d="M29.4951 17.015C29.3307 17.1099 29.1239 17.1252 28.9394 17.0379L15.6495 10.7485L14.4512 25.4026C14.4243 25.732 14.1354 25.9773 13.806 25.9503C13.4766 25.9233 13.2313 25.6345 13.2583 25.3051L14.5976 8.92658L29.4514 15.9561C29.7501 16.0975 29.8777 16.4543 29.7363 16.753C29.6822 16.8671 29.5967 16.9563 29.4951 17.015Z" fill="url(#paint4_linear)"/>
<path d="M20.0888 11.5245L19.7737 12.7005L15.6495 10.7485L15.648 10.765L14.492 10.2181L14.5975 8.92628L20.0888 11.5245Z" fill="url(#paint5_linear)"/>
<path d="M16.2427 11.7763C17.2361 11.2027 17.5765 9.93243 17.0029 8.93902C16.4294 7.94561 15.1591 7.60524 14.1657 8.17879C13.1723 8.75233 12.8319 10.0226 13.4054 11.016C13.979 12.0094 15.2493 12.3498 16.2427 11.7763Z" fill="url(#paint6_linear)"/>
<path d="M15.969 9.13822L15.3299 9.50799L14.9602 8.86894C14.8651 8.70462 14.6549 8.64852 14.4906 8.74358C14.3263 8.83865 14.2701 9.04885 14.3652 9.21318L14.735 9.85222L14.0959 10.222C13.9316 10.3171 13.8755 10.5273 13.9706 10.6916C14.0657 10.8559 14.2759 10.912 14.4402 10.8169L15.0792 10.4472L15.449 11.0862C15.5441 11.2506 15.7543 11.3067 15.9186 11.2116C16.0829 11.1165 16.139 10.9063 16.0439 10.742L15.6742 10.1029L16.3132 9.73317C16.4776 9.63808 16.5337 9.42785 16.4386 9.26358C16.3435 9.09925 16.1333 9.04316 15.969 9.13822Z" fill="url(#paint7_linear)"/>
<path d="M18.9029 38.2589L14.9948 31.4643C14.8569 31.2245 14.9714 30.9982 15.3387 30.7853C15.5327 30.6729 15.7131 30.6255 15.8803 30.6428C16.0474 30.6603 16.2623 30.7527 16.5249 30.9203L21.3921 34.0341L18.6783 29.3159C18.6113 29.1995 18.6146 29.081 18.6885 28.9604C18.7624 28.84 18.8755 28.7355 19.028 28.6472C19.1804 28.5589 19.327 28.5129 19.4679 28.5087C19.6089 28.5048 19.7128 28.561 19.7798 28.6775L23.6938 35.4824C23.7569 35.5921 23.7534 35.7106 23.6835 35.8379C23.6135 35.9654 23.5023 36.0732 23.35 36.1614C23.0591 36.33 22.7639 36.3229 22.4647 36.14L17.2907 32.9024L20.0045 37.6206C20.0676 37.7303 20.0641 37.8488 19.9943 37.9761C19.9242 38.1036 19.813 38.2114 19.6607 38.2996C19.5152 38.384 19.3683 38.4259 19.22 38.4248C19.0717 38.4239 18.966 38.3686 18.9029 38.2589Z" fill="url(#paint8_linear)"/>
<path d="M25.0226 34.7249L21.1138 27.9293C21.0507 27.8197 21.0488 27.7043 21.1085 27.5827C21.168 27.4615 21.2636 27.3626 21.3953 27.2863L25.0958 25.1418C25.2135 25.0736 25.3313 25.0693 25.4488 25.1291C25.5664 25.189 25.6606 25.2805 25.7316 25.4039C25.8106 25.5411 25.8446 25.6766 25.8339 25.8107C25.8232 25.9449 25.7624 26.044 25.6516 26.1082L22.5644 27.8973L23.9186 30.2516L25.5194 29.3239C25.6303 29.2597 25.7432 29.2514 25.8585 29.2988C25.9736 29.3464 26.0666 29.4318 26.1376 29.5551C26.2007 29.6649 26.2257 29.7806 26.2126 29.9024C26.1996 30.0243 26.1339 30.1193 26.0162 30.1875L24.4154 31.1152L25.7756 33.4798L28.8627 31.6907C28.9736 31.6265 29.0895 31.6233 29.2106 31.681C29.3317 31.7389 29.4316 31.8363 29.5105 31.9734C29.5814 32.0967 29.6134 32.2245 29.6061 32.3566C29.5991 32.4888 29.5363 32.5889 29.4186 32.6571L25.7182 34.8015C25.5865 34.8779 25.4535 34.9117 25.319 34.9026C25.1844 34.894 25.0857 34.8346 25.0226 34.7249Z" fill="url(#paint9_linear)"/>
<path d="M26.0214 25.2195C25.9506 25.0964 25.9633 24.9501 26.0592 24.7803C26.1553 24.6107 26.2863 24.4777 26.4523 24.3815C26.6665 24.2573 26.8379 24.2584 26.9658 24.3848L32.0302 29.2474L30.8514 25.033C30.7767 24.7936 30.8947 24.5837 31.2055 24.4035C31.5027 24.2312 31.7407 24.2377 31.9191 24.4223L34.9751 27.5486L33.2989 20.7058C33.2558 20.5355 33.3409 20.3885 33.5542 20.2648C33.7192 20.1692 33.898 20.1218 34.0911 20.1223C34.284 20.1229 34.4154 20.1838 34.4852 20.3052C34.5124 20.3524 34.5282 20.3882 34.5329 20.4124L36.3051 28.2509C36.3323 28.3933 36.2984 28.5361 36.2035 28.6795C36.1085 28.8228 35.9825 28.9401 35.8257 29.031C35.6686 29.122 35.505 29.1737 35.3347 29.1862C35.1645 29.1986 35.0324 29.1549 34.9386 29.055L32.3558 26.4128L33.3503 29.9682C33.3908 30.1014 33.364 30.2389 33.27 30.3811C33.1759 30.5231 33.0467 30.6418 32.8828 30.7368C32.7187 30.8319 32.5523 30.885 32.3836 30.8962C32.2148 30.9074 32.0797 30.8649 31.9783 30.7685L26.0906 25.316C26.072 25.2996 26.0489 25.2675 26.0214 25.2195Z" fill="url(#paint10_linear)"/>
<defs>
<linearGradient id="paint0_linear" x1="12.1657" y1="28.014" x2="16.8645" y2="25.3012" gradientUnits="userSpaceOnUse">
<stop stop-color="#FFE7A5"/>
<stop offset="0.966" stop-color="#FFBF5C"/>
</linearGradient>
<linearGradient id="paint1_linear" x1="27.6441" y1="19.0776" x2="32.3429" y2="16.3647" gradientUnits="userSpaceOnUse">
<stop stop-color="#FFE7A5"/>
<stop offset="0.966" stop-color="#FFBF5C"/>
</linearGradient>
<linearGradient id="paint2_linear" x1="32.7092" y1="17.3645" x2="28.0243" y2="16.1092" gradientUnits="userSpaceOnUse">
<stop stop-color="#FF5D00" stop-opacity="0"/>
<stop offset="1" stop-color="#D54003"/>
</linearGradient>
<linearGradient id="paint3_linear" x1="17.1644" y1="25.7848" x2="13.9866" y2="24.9333" gradientUnits="userSpaceOnUse">
<stop stop-color="#FF5D00" stop-opacity="0"/>
<stop offset="1" stop-color="#D54003"/>
</linearGradient>
<linearGradient id="paint4_linear" x1="10.0225" y1="19.9134" x2="26.3993" y2="10.4582" gradientUnits="userSpaceOnUse">
<stop stop-color="#FF7BAC"/>
<stop offset="1" stop-color="#E24786"/>
</linearGradient>
<linearGradient id="paint5_linear" x1="19.2142" y1="11.7482" x2="17.4303" y2="10.9268" gradientUnits="userSpaceOnUse">
<stop stop-color="#FF7BAC" stop-opacity="0"/>
<stop offset="1" stop-color="#E24786"/>
</linearGradient>
<linearGradient id="paint6_linear" x1="14.2023" y1="8.24671" x2="16.5848" y2="12.3645" gradientUnits="userSpaceOnUse">
<stop stop-color="#E2EDF2"/>
<stop offset="1" stop-color="#BDCCD4"/>
</linearGradient>
<linearGradient id="paint7_linear" x1="15.4914" y1="10.4738" x2="14.3667" y2="8.53084" gradientUnits="userSpaceOnUse">
<stop stop-color="#E2EDF2"/>
<stop offset="1" stop-color="#BDCCD4"/>
</linearGradient>
<linearGradient id="paint8_linear" x1="19.3799" y1="33.5354" x2="26.222" y2="45.3418" gradientUnits="userSpaceOnUse">
<stop stop-color="white"/>
<stop offset="1" stop-color="#E2EDF2"/>
</linearGradient>
<linearGradient id="paint9_linear" x1="25.38" y1="30.0701" x2="32.2231" y2="41.8785" gradientUnits="userSpaceOnUse">
<stop stop-color="white"/>
<stop offset="1" stop-color="#E2EDF2"/>
</linearGradient>
<linearGradient id="paint10_linear" x1="32.1932" y1="26.1367" x2="39.0235" y2="37.9206" gradientUnits="userSpaceOnUse">
<stop stop-color="white"/>
<stop offset="1" stop-color="#E2EDF2"/>
</linearGradient>
</defs>
</svg>
