<svg width="98" height="88" viewBox="0 0 98 88" fill="none" xmlns="http://www.w3.org/2000/svg">
<path d="M96.1134 39C97.8997 42.094 97.8997 45.906 96.1134 49L76.8869 82.3013C75.1005 85.3953 71.7993 87.3013 68.2266 87.3013L29.7736 87.3013C26.201 87.3013 22.8997 85.3953 21.1134 82.3013L1.88688 49C0.100546 45.906 0.100546 42.094 1.88688 39L21.1134 5.69873C22.8997 2.60472 26.201 0.698727 29.7736 0.698728L68.2266 0.698729C71.7993 0.698729 75.1006 2.60472 76.8869 5.69873L96.1134 39Z" fill="white"/>
<path fill-rule="evenodd" clip-rule="evenodd" d="M74.2888 80.8013L93.5153 47.5C94.7657 45.3342 94.7657 42.6658 93.5153 40.5L74.2888 7.19873C73.0384 5.03292 70.7275 3.69873 68.2266 3.69873L29.7736 3.69873C27.2728 3.69873 24.9619 5.03292 23.7115 7.19873L4.48495 40.5C3.23453 42.6658 3.23453 45.3342 4.48495 47.5L23.7115 80.8013C24.9619 82.9671 27.2728 84.3013 29.7736 84.3013L68.2266 84.3013C70.7275 84.3013 73.0384 82.9671 74.2888 80.8013ZM96.1134 49C97.8997 45.906 97.8997 42.094 96.1134 39L76.8869 5.69873C75.1006 2.60472 71.7993 0.698729 68.2266 0.698729L29.7736 0.698728C26.201 0.698727 22.8997 2.60472 21.1134 5.69873L1.88688 39C0.100554 42.094 0.100553 45.906 1.88688 49L21.1134 82.3013C22.8997 85.3953 26.201 87.3013 29.7736 87.3013L68.2266 87.3013C71.7993 87.3013 75.1005 85.3953 76.8869 82.3013L96.1134 49Z" fill="#255888"/>
<path d="M38.1603 23.8905C38.3589 21.7177 38.4582 21.6189 40.469 21.6189C40.6924 21.6189 41.0648 21.6189 41.2882 21.6436C42.3557 21.7177 43.1004 21.4461 43.6218 20.1621C44.5155 18.014 46.4518 16.9523 48.7853 17.0016C51.1188 17.051 52.8566 18.1868 53.8992 20.3103C54.0978 20.7054 54.2467 21.1498 54.4453 21.6436C55.1653 21.6436 55.91 21.6436 56.6547 21.6436C58.9138 21.6436 58.9138 21.6436 59.1869 23.9152C60.1302 23.9152 61.1232 23.9152 62.0914 23.9152C65.7902 23.9152 68.2727 26.1128 68.3472 29.7918C68.4713 34.2362 68.372 38.6807 68.372 43.1251C68.372 43.9152 68.0741 44.5819 67.2301 44.6066C66.2867 44.6313 66.0137 43.9399 66.0137 43.1004C66.0137 38.8535 66.0137 34.6313 66.0137 30.3844C66.0137 27.4708 64.7228 26.2115 61.7686 26.1868C60.8998 26.1868 60.0557 26.1868 59.311 26.1868C59.162 26.3597 59.1124 26.3844 59.1124 26.4337C58.6159 30.2856 57.9456 30.8535 53.9488 30.8535C50.1507 30.8535 46.3277 30.8535 42.5295 30.8535C39.5753 30.8535 38.4086 29.7671 38.1851 26.8535C38.1851 26.6807 38.1355 26.5325 38.1107 26.3103C36.795 26.3103 35.4544 26.1868 34.1635 26.335C32.5003 26.5078 31.408 27.8658 31.3087 29.6436C31.259 30.8041 31.2839 31.9399 31.2839 33.1004C31.2839 41.6683 31.2839 50.2115 31.2839 58.7794C31.2839 61.7918 32.5748 63.0757 35.5786 63.1004C40.3449 63.1004 45.0864 63.1004 49.8528 63.1004C50.1755 63.1004 50.523 63.1004 50.8458 63.1004C51.6401 63.1004 52.0373 63.5202 52.0373 64.1621C52.0373 65.0757 51.2926 65.298 50.8458 65.3473C49.3314 65.4708 47.7923 65.3967 46.2532 65.3967C42.4798 65.3967 38.7313 65.3967 34.9579 65.3967C31.6562 65.3967 29 62.73 29 59.4708C29 49.4955 29 39.5449 29.0248 29.6189C29.0248 26.4091 31.5569 23.9399 34.7842 23.8905C35.8764 23.8905 36.9936 23.8905 38.1603 23.8905ZM40.6428 23.8905C40.6428 25.0757 40.6676 26.0634 40.6428 27.051C40.5931 28.0634 41.1393 28.5078 42.0578 28.5325C46.5263 28.5572 50.9947 28.5819 55.4632 28.4831C55.91 28.4831 56.6796 27.8658 56.754 27.4708C56.9278 26.335 56.8037 25.1251 56.8037 23.8905C55.7859 23.8905 54.917 23.8412 54.0481 23.8905C52.8317 23.9646 52.2111 23.5202 52.1118 22.2609C51.9877 20.8535 51.1188 19.9399 49.8031 19.4708C47.7427 18.7794 45.6574 20.0387 45.3347 22.2856C45.1609 23.5449 44.5899 23.9893 43.3735 23.8905C42.5046 23.8412 41.6358 23.8905 40.6428 23.8905Z" fill="#255888"/>
<path d="M83.5648 47.5958C83.5151 47.5217 83.4655 47.4477 83.4158 47.3983C82.5966 46.3859 81.5788 45.497 80.6355 44.5835C78.7985 42.781 76.9366 42.781 75.1244 44.5588C69.3899 50.2378 63.6554 55.9168 57.9705 61.6452C57.474 62.139 57.1265 62.7563 56.9775 63.4477C56.4314 65.7687 56.0094 68.1143 55.5625 70.46C55.3391 71.6699 56.1335 72.46 57.3499 72.2131C59.6586 71.744 61.9921 71.2995 64.3008 70.781C64.8718 70.6575 65.5172 70.3859 65.9144 69.9909C71.7731 64.2378 77.6069 58.46 83.391 52.6329C83.4407 52.5835 83.4903 52.5094 83.54 52.46C84.7067 51.0526 84.6323 49.0526 83.5648 47.5958ZM81.7278 50.9785C76.0181 56.6822 70.2836 62.3859 64.5739 68.0896C64.4001 68.2625 64.2015 68.46 63.9781 68.5094C62.0914 68.9045 60.1799 69.2748 58.0946 69.6946C58.4918 67.6946 58.8146 65.9168 59.2117 64.1637C59.311 63.7193 59.6338 63.2748 59.9565 62.9538C65.4676 57.4477 70.9787 51.9415 76.4898 46.46C77.6813 45.2748 78.0785 45.2748 79.2453 46.4353C80.0645 47.2501 80.8589 48.0896 81.7029 48.8798C82.4229 49.5711 82.4477 50.2625 81.7278 50.9785Z" fill="#255888"/>
<path d="M48.686 37.7194C45.0864 37.7194 41.4868 37.7194 37.8873 37.7194C37.5149 37.7194 37.0432 37.8181 36.795 37.6206C36.4474 37.3737 36.0006 36.9046 36.0254 36.5342C36.0254 36.1885 36.4971 35.7194 36.8694 35.5218C37.1922 35.349 37.6638 35.4478 38.0859 35.4478C45.1609 35.4478 52.2111 35.4478 59.2862 35.4478C59.6585 35.4478 60.1054 35.349 60.3785 35.5218C60.7756 35.7688 61.3218 36.2132 61.3218 36.5836C61.3218 36.9539 60.8005 37.4231 60.4281 37.6947C60.2047 37.8428 59.7827 37.7441 59.4599 37.7441C55.8852 37.7194 52.2856 37.7194 48.686 37.7194Z" fill="#255888"/>
<path d="M48.7603 42.3367C52.4343 42.3367 56.1084 42.3367 59.8073 42.3367C60.552 42.3367 61.3216 42.4354 61.3961 43.3243C61.4954 44.3614 60.7755 44.633 59.8818 44.633C56.729 44.633 53.6011 44.633 50.4484 44.633C46.1785 44.633 41.9335 44.6577 37.6636 44.6083C37.1423 44.6083 36.4969 44.3861 36.1742 44.0157C35.5535 43.2749 36.2486 42.3614 37.465 42.3614C40.0716 42.3367 42.6782 42.3614 45.2848 42.3614C46.4268 42.3367 47.5935 42.3367 48.7603 42.3367Z" fill="#255888"/>
<path d="M48.8101 51.5465C45.1609 51.5465 41.5365 51.5465 37.8873 51.5465C37.5149 51.5465 37.0432 51.6453 36.795 51.4478C36.4474 51.2008 36.0006 50.7317 36.0254 50.3613C36.0254 50.0157 36.4971 49.5465 36.8694 49.349C37.1922 49.1762 37.6638 49.2749 38.0859 49.2749C45.1609 49.2749 52.2111 49.2749 59.2862 49.2749C59.6585 49.2749 60.1054 49.1762 60.3785 49.349C60.7756 49.5959 61.3218 50.0404 61.3218 50.4107C61.3218 50.7811 60.8005 51.2255 60.4033 51.5218C60.1799 51.67 59.7578 51.5712 59.4351 51.5712C55.91 51.5465 52.3601 51.5465 48.8101 51.5465Z" fill="#255888"/>
</svg>
