<svg width="98" height="88" viewBox="0 0 98 88" fill="none" xmlns="http://www.w3.org/2000/svg">
<path d="M96.1134 39C97.8997 42.094 97.8997 45.906 96.1134 49L76.8869 82.3013C75.1005 85.3953 71.7993 87.3013 68.2266 87.3013L29.7736 87.3013C26.201 87.3013 22.8997 85.3953 21.1134 82.3013L1.88688 49C0.100546 45.906 0.100546 42.094 1.88688 39L21.1134 5.69873C22.8997 2.60472 26.201 0.698727 29.7736 0.698728L68.2266 0.698729C71.7993 0.698729 75.1006 2.60472 76.8869 5.69873L96.1134 39Z" fill="white"/>
<path d="M47.7989 60.5705H50.8619C51.3204 60.5705 51.6919 60.1989 51.6919 59.7405C51.6919 59.2821 51.3204 58.9105 50.8619 58.9105H47.7989C47.3404 58.9105 46.9689 59.2821 46.9689 59.7405C46.9689 60.1989 47.3405 60.5705 47.7989 60.5705ZM50.1604 48.4043C49.702 48.4043 49.3304 48.7759 49.3304 49.2343C49.3304 49.6927 49.702 50.0643 50.1604 50.0643C50.6188 50.0643 50.9904 49.6927 50.9904 49.2343C50.9904 48.7759 50.6188 48.4043 50.1604 48.4043ZM46.8404 48.4043C46.3821 48.4043 46.0105 48.7759 46.0105 49.2343C46.0105 49.6927 46.3821 50.0643 46.8404 50.0643C47.2988 50.0643 47.6704 49.6927 47.6704 49.2343C47.6704 48.7759 47.2988 48.4043 46.8404 48.4043ZM77.6555 27.4647C77.6679 27.2992 77.6545 27.1288 77.6086 26.9594L75.4826 19.1065C75.3754 18.7102 75.1063 18.3715 74.7446 18.1774C74.3826 17.9833 73.9519 17.9467 73.5623 18.0764L70.4674 19.108C69.786 19.3352 69.3712 20.0143 69.4552 20.7097L61.8659 19.9842C60.9253 19.8938 60.0176 20.2867 59.4389 21.0339L57.9666 22.9352L51.0612 20.8392C49.8689 20.4784 48.6022 21.1544 48.2395 22.3478L46.8749 26.8459H25.15C24.6915 26.8459 24.32 27.2175 24.32 27.6759V55.5905H22.66V27.6756C22.66 26.3026 23.777 25.1857 25.15 25.1857H45.1778C45.6363 25.1857 46.0078 24.814 46.0078 24.3557C46.0078 23.8973 45.6363 23.5257 45.1778 23.5257H25.15C22.8616 23.5257 21 25.3873 21 27.6756V59.7405C21 62.0288 22.8616 63.8904 25.15 63.8904H41.7441L39.0291 71.34H37.9501C37.4916 71.34 37.1201 71.7116 37.1201 72.17C37.1201 72.6284 37.4916 73 37.9501 73H60.711C61.1694 73 61.5409 72.6284 61.5409 72.17C61.5409 71.7116 61.1694 71.34 60.711 71.34H59.632L56.917 63.8904H73.5109C75.7992 63.8904 77.6608 62.0288 77.6608 59.7405C77.6608 59.6727 77.6508 27.5283 77.6555 27.4647ZM73.9251 19.7053L75.9659 27.2439L73.2677 28.1024C73.2649 28.1033 73.2621 28.1041 73.2592 28.105L73.103 28.1547L72.782 26.9277L71.3778 21.4443C71.3594 21.3728 71.3303 21.3065 71.2954 21.2442L71.136 20.6349L73.9251 19.7053ZM59.7264 42.8781H60.5353V55.3138C60.5353 55.4663 60.4113 55.5905 60.2587 55.5905H40.0622C39.9096 55.5905 39.7855 55.4663 39.7855 55.3138V42.8781H56.4064C56.8649 42.8781 57.2364 42.5065 57.2364 42.0481C57.2364 41.5897 56.8649 41.2181 56.4064 41.2181H38.1255V39.5581H62.1953V41.2181H59.7264C59.2679 41.2181 58.8964 41.5897 58.8964 42.0481C58.8964 42.5065 59.268 42.8781 59.7264 42.8781ZM62.1953 55.3138V42.8781H62.2506C63.1354 42.8781 63.8553 42.1582 63.8553 41.2735V39.5028C63.8553 38.618 63.1354 37.8982 62.2506 37.8982H58.7275L60.2755 32.7979L64.3117 32.622C65.4628 32.5718 66.6 32.243 67.6004 31.6712L71.8009 29.2702C71.926 29.4338 72.0842 29.5721 72.267 29.6728C72.3973 29.7445 72.5372 29.7931 72.6809 29.8233V55.5905H62.1732C62.1862 55.5 62.1953 55.408 62.1953 55.3138ZM60.7513 22.0503C60.9796 21.7557 61.3371 21.6015 61.708 21.6365L69.8866 22.4184L71.1716 27.3307L71.2581 27.6684L66.7766 30.23C66.0048 30.6711 65.1275 30.9248 64.2394 30.9635L56.8119 31.2872L56.7376 30.7381C56.6748 30.2724 56.9859 29.8337 57.4461 29.7393L60.9622 29.018L62.772 28.6774C63.2224 28.5926 63.5189 28.1586 63.434 27.7082C63.3492 27.2577 62.9155 26.961 62.4648 27.0461L61.9937 27.1347L62.1641 26.573C62.3396 25.9946 62.2794 25.3828 61.9947 24.8497C61.7098 24.3167 61.2345 23.9265 60.6562 23.7511L59.6666 23.4508L60.7513 22.0503ZM49.828 22.83C49.9248 22.512 50.2627 22.3317 50.5799 22.4277L58.0322 24.6897C58.0325 24.6898 58.033 24.6899 58.0334 24.69L60.1744 25.3397C60.4879 25.4331 60.6728 25.7778 60.5759 26.0911L60.1514 27.4901L57.1128 28.1133C55.8007 28.3825 54.9134 29.633 55.0927 30.9605L55.1984 31.7423C55.2933 32.4451 55.8844 32.9574 56.5868 32.9574C56.6613 32.9574 58.4429 32.8777 58.5176 32.8746L56.9928 37.8982H45.5162C45.4016 37.7478 45.3626 37.5492 45.4203 37.3588C45.4269 37.3528 49.828 22.83 49.828 22.83ZM25.98 28.5056H46.3714L43.8318 36.8771C43.7284 37.2181 43.7092 37.5659 43.7624 37.8982H38.0702C37.1854 37.8982 36.4655 38.618 36.4655 39.5028V41.2735C36.4655 42.1582 37.1854 42.8781 38.0702 42.8781H38.1255V55.3138C38.1255 55.408 38.1346 55.4999 38.1477 55.5905H25.98V28.5056ZM57.865 71.3401H40.7959L43.5108 63.8906H55.1499L57.865 71.3401ZM76.0009 59.7405C76.0009 61.1135 74.8838 62.2305 73.5109 62.2305H25.15C23.777 62.2305 22.66 61.1135 22.66 59.7405V57.2505H76.0009V59.7405ZM76.0009 55.5905H74.3409V29.503L76.0009 28.9747V55.5905ZM53.4804 48.4043C53.022 48.4043 52.6504 48.7759 52.6504 49.2343C52.6504 49.6927 53.022 50.0643 53.4804 50.0643C53.9388 50.0643 54.3104 49.6927 54.3104 49.2343C54.3104 48.7759 53.9388 48.4043 53.4804 48.4043Z" fill="#255888"/>
<path fill-rule="evenodd" clip-rule="evenodd" d="M74.2888 80.8013L93.5153 47.5C94.7657 45.3342 94.7657 42.6658 93.5153 40.5L74.2888 7.19873C73.0384 5.03292 70.7275 3.69873 68.2266 3.69873L29.7736 3.69873C27.2728 3.69873 24.9619 5.03292 23.7115 7.19873L4.48495 40.5C3.23453 42.6658 3.23453 45.3342 4.48495 47.5L23.7115 80.8013C24.9619 82.9671 27.2728 84.3013 29.7736 84.3013L68.2266 84.3013C70.7275 84.3013 73.0384 82.9671 74.2888 80.8013ZM96.1134 49C97.8997 45.906 97.8997 42.094 96.1134 39L76.8869 5.69873C75.1006 2.60472 71.7993 0.698729 68.2266 0.698729L29.7736 0.698728C26.201 0.698727 22.8997 2.60472 21.1134 5.69873L1.88688 39C0.100554 42.094 0.100553 45.906 1.88688 49L21.1134 82.3013C22.8997 85.3953 26.201 87.3013 29.7736 87.3013L68.2266 87.3013C71.7993 87.3013 75.1005 85.3953 76.8869 82.3013L96.1134 49Z" fill="#255888"/>
</svg>
