<svg width="98" height="88" viewBox="0 0 98 88" fill="none" xmlns="http://www.w3.org/2000/svg">
<path d="M96.1134 39C97.8997 42.094 97.8997 45.906 96.1134 49L76.8869 82.3013C75.1005 85.3953 71.7993 87.3013 68.2266 87.3013L29.7736 87.3013C26.201 87.3013 22.8997 85.3953 21.1134 82.3013L1.88688 49C0.100546 45.906 0.100546 42.094 1.88688 39L21.1134 5.69873C22.8997 2.60472 26.201 0.698727 29.7736 0.698728L68.2266 0.698729C71.7993 0.698729 75.1006 2.60472 76.8869 5.69873L96.1134 39Z" fill="white"/>
<path d="M32.1604 21.8907C32.359 19.7178 32.4583 19.619 34.4691 19.619C34.6926 19.619 35.0649 19.619 35.2884 19.6437C36.3558 19.7178 37.1006 19.4462 37.6219 18.1622C38.5156 16.014 40.452 14.9523 42.7855 15.0016C45.119 15.051 46.8568 16.1869 47.8994 18.3104C48.098 18.7054 48.247 19.1499 48.4456 19.6437C49.1655 19.6437 49.9103 19.6437 50.655 19.6437C52.9141 19.6437 52.9141 19.6437 53.1872 21.9154C54.1305 21.9154 55.1235 21.9154 56.0917 21.9154C59.7906 21.9154 62.2731 24.113 62.3476 27.7921C62.4717 32.2367 62.3724 32.4095 62.3724 36.8541C62.3724 37.6442 62.0745 38.3109 61.2304 38.3356C60.2871 38.3603 60.014 37.6689 60.014 36.8294C60.014 32.5823 60.014 32.6317 60.014 28.3847C60.014 25.4711 58.7231 24.2118 55.769 24.1871C54.9001 24.1871 54.056 24.1871 53.3113 24.1871C53.1623 24.3599 53.1127 24.3846 53.1127 24.434C52.6162 28.2859 51.9459 28.8539 47.9491 28.8539C44.1509 28.8539 40.3278 28.8539 36.5296 28.8539C33.5754 28.8539 32.4087 27.7674 32.1852 24.8538C32.1852 24.6809 32.1356 24.5328 32.1108 24.3105C30.795 24.3105 29.4545 24.1871 28.1636 24.3352C26.5003 24.5081 25.408 25.8661 25.3087 27.6439C25.2591 28.8045 25.2839 29.9403 25.2839 31.1008C25.2839 39.6689 25.2839 48.2124 25.2839 56.7805C25.2839 59.7929 26.5748 61.0769 29.5786 61.1016C34.345 61.1016 39.0866 61.1016 43.853 61.1016C44.1757 61.1016 44.5232 61.1016 44.846 61.1016C45.6404 61.1016 46.0376 61.5214 46.0376 62.1634C46.0376 63.077 45.2928 63.2992 44.846 63.3486C43.3316 63.472 41.7925 63.398 40.2534 63.398C36.48 63.398 32.7314 63.398 28.958 63.398C25.6563 63.398 23 60.7312 23 57.4719C23 47.4963 23 37.5454 23.0248 27.6193C23.0248 24.4093 25.557 21.9401 28.7842 21.8907C29.8765 21.8907 30.9936 21.8907 32.1604 21.8907ZM34.6429 21.8907C34.6429 23.0759 34.6677 24.0636 34.6429 25.0513C34.5933 26.0637 35.1394 26.5081 36.0579 26.5328C40.5264 26.5575 44.9949 26.5822 49.4634 26.4834C49.9103 26.4834 50.6798 25.8661 50.7543 25.4711C50.9281 24.3352 50.804 23.1253 50.804 21.8907C49.7861 21.8907 48.9173 21.8413 48.0484 21.8907C46.832 21.9648 46.2113 21.5203 46.112 20.261C45.9879 18.8536 45.119 17.94 43.8033 17.4708C41.7428 16.7795 39.6576 18.0388 39.3348 20.2857C39.1611 21.545 38.5901 21.9895 37.3737 21.8907C36.5048 21.8413 35.6359 21.8907 34.6429 21.8907Z" fill="#255888"/>
<path d="M56.403 37.9973C56.2086 38.1078 55.9865 38.1908 55.7366 38.1908C51.8215 38.1908 47.9341 38.1908 44.019 38.1908C39.9929 38.1908 35.9667 38.1908 31.9405 38.1908C31.524 38.1908 30.9965 38.3013 30.7188 38.0802C30.3301 37.8038 29.8303 37.2787 29.858 36.8642C29.858 36.4773 30.3856 35.9522 30.8021 35.7311C31.1631 35.5376 31.6906 35.6481 32.1627 35.6481C39.9651 35.6481 47.7675 35.6481 55.57 35.6481C55.7921 35.6481 55.9865 35.7034 56.1808 35.814L56.3197 35.8969C57.1527 36.3391 57.2082 37.4998 56.403 37.9973Z" fill="#255888"/>
<path d="M44.102 43.3589C48.2115 43.3589 43.1857 43.3589 47.2952 43.3589C48.1282 43.3589 48.9889 43.4694 49.0722 44.4644C49.1833 45.6251 48.3781 45.9291 47.3785 45.9291C43.8521 45.9291 49.4887 45.9291 45.9901 45.9291C41.2143 45.9291 36.4662 45.9568 31.6903 45.9015C31.1072 45.9015 30.3853 45.6528 30.0243 45.2382C29.3302 44.4091 30.1076 43.3865 31.4682 43.3865C34.3837 43.3589 37.2992 43.3865 40.2147 43.3865C41.4919 43.3589 42.797 43.3589 44.102 43.3589Z" fill="#255888"/>
<path d="M43.3803 51.2629C43.1859 51.1524 42.9915 51.0971 42.7694 51.0971C34.967 51.0971 39.965 51.0971 32.1625 51.0971C31.6905 51.0971 31.1629 50.9866 30.802 51.18C30.3855 51.4011 29.8579 51.9262 29.8579 52.3131C29.8579 52.7277 30.3299 53.2528 30.7187 53.5292C30.9963 53.7226 31.5239 53.6397 31.9404 53.6397C36.0221 53.6397 27.2756 53.6397 31.3573 53.6397C35.2169 53.6397 38.9654 53.6121 42.7972 53.6121C43.0193 53.6121 43.2414 53.5568 43.4358 53.4463C44.2966 52.9488 44.2688 51.7328 43.408 51.2629H43.3803Z" fill="#255888"/>
<path d="M49.0001 57.0102C49.0279 48.6914 55.8585 41.9756 64.2995 42.0033C72.7683 42.0309 79.5989 48.9125 79.5156 57.3971C79.4323 65.5776 72.4907 72.3764 64.244 72.3764C55.7474 72.3487 48.9723 65.4947 49.0001 57.0102ZM51.3325 57.0102C51.3325 64.1958 57.0246 70.0825 64.1884 69.9996C71.6021 69.9167 77.0999 64.2511 77.1555 57.2313C77.211 50.1009 71.3245 44.2971 64.2162 44.2971C57.1912 44.3248 51.3325 50.0733 51.3325 57.0102Z" fill="#255888"/>
<path d="M61.8006 60.1332C64.0774 57.5353 66.2987 55.048 68.4923 52.533C68.6867 52.3119 68.8811 52.0908 69.0754 51.8697C69.5752 51.2894 70.1861 51.0406 70.8247 51.5657C71.4911 52.1461 71.3523 52.8094 70.8247 53.4451C70.2694 54.0807 69.714 54.6887 69.1865 55.3244C67.215 57.5906 65.2159 59.8568 63.2444 62.0954C62.2448 63.2286 61.745 63.2562 60.6899 62.2336C59.3571 60.9071 58.0243 59.5805 56.6915 58.2539C56.0806 57.6459 55.803 56.955 56.4971 56.3193C57.1358 55.7113 57.8022 56.0429 58.3575 56.5957C59.4682 57.7564 60.6066 58.9172 61.8006 60.1332Z" fill="#255888"/>
<path fill-rule="evenodd" clip-rule="evenodd" d="M74.2888 80.8013L93.5153 47.5C94.7657 45.3342 94.7657 42.6658 93.5153 40.5L74.2888 7.19873C73.0384 5.03292 70.7275 3.69873 68.2266 3.69873L29.7736 3.69873C27.2728 3.69873 24.9619 5.03292 23.7115 7.19873L4.48495 40.5C3.23453 42.6658 3.23453 45.3342 4.48495 47.5L23.7115 80.8013C24.9619 82.9671 27.2728 84.3013 29.7736 84.3013L68.2266 84.3013C70.7275 84.3013 73.0384 82.9671 74.2888 80.8013ZM96.1134 49C97.8997 45.906 97.8997 42.094 96.1134 39L76.8869 5.69873C75.1006 2.60472 71.7993 0.698729 68.2266 0.698729L29.7736 0.698728C26.201 0.698727 22.8997 2.60472 21.1134 5.69873L1.88688 39C0.100554 42.094 0.100553 45.906 1.88688 49L21.1134 82.3013C22.8997 85.3953 26.201 87.3013 29.7736 87.3013L68.2266 87.3013C71.7993 87.3013 75.1005 85.3953 76.8869 82.3013L96.1134 49Z" fill="#255888"/>
</svg>
