<svg width="48" height="47" viewBox="0 0 48 47" fill="none" xmlns="http://www.w3.org/2000/svg">
<path d="M27.2452 2.25625L44.7446 19.7557C44.9086 19.92 45.0005 20.1429 45.0001 20.3751V47L0 2.00073H26.6257C26.858 2.00032 27.0808 2.09228 27.2452 2.25625Z" fill="#D46363"/>
<path d="M15.6661 12.1509L17.0124 13.4973L23.2463 7.2634L23.2689 7.28603L19.2752 15.76L20.4405 16.9253L28.9144 12.9316L28.9371 12.9542L22.7032 19.188L24.0495 20.5344L32.1275 12.4564L30.1589 10.4878L21.6623 14.6399L21.6397 14.6173L25.7353 6.06415L23.7441 4.07293L15.6661 12.1509ZM37 21.9901L36.7398 22.9971C36.1289 22.816 35.7781 22.6463 35.4727 22.3409C35.7442 21.0964 35.3482 19.8179 34.2508 18.7205C32.384 16.8537 29.9968 17.0687 28.2206 18.8449C26.4217 20.6438 26.2181 23.0197 28.0848 24.8864C29.9516 26.7532 32.3275 26.5496 34.1263 24.7507C34.5676 24.3094 34.9183 23.823 35.1559 23.3138C35.5066 23.6646 36.0384 23.9022 36.6154 24.0492L37.9843 24.4226L38.5274 22.4087L37 21.9901ZM29.1031 23.8682C27.9491 22.7142 28.4921 21.1529 29.5104 20.1347C30.5173 19.1278 32.0786 18.5847 33.2326 19.7387C34.3866 20.8927 33.8435 22.454 32.8366 23.4609C31.8183 24.4792 30.2571 25.0222 29.1031 23.8682ZM33.9906 17.1479L34.9296 18.0869L38.154 18.0756L36.6267 16.5482L33.9906 17.1479ZM40.1969 22.9696L41.4867 24.2593L42.7086 23.0374L41.4188 21.7477L40.1969 22.9696ZM33.3408 29.8257L34.6306 31.1154L40.4798 25.2663L39.19 23.9765L33.3408 29.8257Z" fill="white"/>
</svg>
